<?xml version="1.0" encoding="UTF-8" standalone="no"?>
<!DOCTYPE svg PUBLIC "-//W3C//DTD SVG 1.1//EN"
 "http://www.w3.org/Graphics/SVG/1.1/DTD/svg11.dtd">
<!-- Generated by graphviz version 2.28.0 (20121118.1836)
 -->
<!-- Title: models_diagram Pages: 1 -->
<svg width="1556pt" height="538pt"
 viewBox="0.00 0.00 1556.00 538.00" xmlns="http://www.w3.org/2000/svg" xmlns:xlink="http://www.w3.org/1999/xlink">
<g id="graph1" class="graph" transform="scale(1 1) rotate(0) translate(4 534)">
<title>models_diagram</title>
<polygon fill="white" stroke="white" points="-4,5 -4,-534 1553,-534 1553,5 -4,5"/>
<!-- _diagram_info -->
<g id="node1" class="node"><title>_diagram_info</title>
<text text-anchor="start" x="8" y="-515.6" font-family="Times,serif" font-size="13.00">Models diagram</text>
<text text-anchor="start" x="8" y="-501.6" font-family="Times,serif" font-size="13.00">Date: Oct 01 2013 &#45; 09:25</text>
<text text-anchor="start" x="8" y="-487.6" font-family="Times,serif" font-size="13.00">Migration version: 20130919033459666</text>
<text text-anchor="start" x="8" y="-473.6" font-family="Times,serif" font-size="13.00">Generated by RailRoady 1.1.1</text>
<text text-anchor="start" x="8" y="-459.6" font-family="Times,serif" font-size="13.00">http://railroady.prestonlee.com</text>
</g>
<!-- Ability -->
<g id="node2" class="node"><title>Ability</title>
<polygon fill="none" stroke="black" points="309.25,-414 252.75,-414 252.75,-378 309.25,-378 309.25,-414"/>
<text text-anchor="middle" x="281" y="-392.3" font-family="Times,serif" font-size="14.00">Ability</text>
</g>
<!-- Admin::Jury -->
<g id="node3" class="node"><title>Admin::Jury</title>
<ellipse fill="none" stroke="black" cx="551" cy="-180" rx="58.2422" ry="18"/>
<text text-anchor="middle" x="551" y="-176.3" font-family="Times,serif" font-size="14.00">Admin::Jury</text>
</g>
<!-- Admin::Nomination -->
<g id="node4" class="node"><title>Admin::Nomination</title>
<ellipse fill="none" stroke="black" cx="499" cy="-288" rx="87.1385" ry="18"/>
<text text-anchor="middle" x="499" y="-284.3" font-family="Times,serif" font-size="14.00">Admin::Nomination</text>
</g>
<!-- Admin -->
<g id="node5" class="node"><title>Admin</title>
<polygon fill="none" stroke="black" stroke-dasharray="1,5" points="937.25,-509 880.75,-509 880.75,-473 937.25,-473 937.25,-509"/>
<text text-anchor="middle" x="909" y="-487.3" font-family="Times,serif" font-size="14.00">Admin</text>
</g>
<!-- Comment -->
<g id="node6" class="node"><title>Comment</title>
<ellipse fill="none" stroke="black" cx="329" cy="-92" rx="48.1437" ry="18"/>
<text text-anchor="middle" x="329" y="-88.3" font-family="Times,serif" font-size="14.00">Comment</text>
</g>
<!-- Competition -->
<g id="node7" class="node"><title>Competition</title>
<ellipse fill="none" stroke="black" cx="589" cy="-396" rx="57.2688" ry="18"/>
<text text-anchor="middle" x="589" y="-392.3" font-family="Times,serif" font-size="14.00">Competition</text>
</g>
<!-- Competition&#45;&gt;Admin::Jury -->
<g id="edge10" class="edge"><title>Competition&#45;&gt;Admin::Jury</title>
<path fill="none" stroke="#4e7320" d="M603.942,-371.127C605.612,-367.513 607.05,-363.74 608,-360 611.938,-344.492 609.886,-339.889 608,-324 605.091,-299.486 603.411,-293.209 595,-270 587.022,-247.986 575.121,-224.275 565.708,-206.866"/>
<ellipse fill="none" stroke="#4e7320" cx="602.104" cy="-374.702" rx="4.00002" ry="4.00002"/>
<polygon fill="#4e7320" stroke="#4e7320" points="565.592,-206.656 564.718,-195.725 563.183,-202.275 560.774,-197.894 560.774,-197.894 560.774,-197.894 563.183,-202.275 556.831,-200.062 565.592,-206.656 565.592,-206.656"/>
<text text-anchor="middle" x="618.5" y="-284.3" font-family="Times,serif" font-size="14.00">jury</text>
</g>
<!-- Competition&#45;&gt;Admin::Nomination -->
<g id="edge12" class="edge"><title>Competition&#45;&gt;Admin::Nomination</title>
<path fill="none" stroke="#f01c38" d="M553.843,-375.452C547.432,-370.912 541.152,-365.713 536,-360 524.277,-347 515.134,-329.608 508.869,-315.291"/>
<ellipse fill="none" stroke="#f01c38" cx="557.479" cy="-377.887" rx="4.00002" ry="4.00002"/>
<polygon fill="#f01c38" stroke="#f01c38" points="508.831,-315.198 509.152,-304.237 506.913,-310.58 504.996,-305.963 504.996,-305.963 504.996,-305.963 506.913,-310.58 500.84,-307.688 508.831,-315.198 508.831,-315.198"/>
<text text-anchor="middle" x="572" y="-338.3" font-family="Times,serif" font-size="14.00">nominations</text>
</g>
<!-- CompetitionPhoto -->
<g id="node8" class="node"><title>CompetitionPhoto</title>
<ellipse fill="none" stroke="black" cx="956" cy="-92" rx="79.4147" ry="18"/>
<text text-anchor="middle" x="956" y="-88.3" font-family="Times,serif" font-size="14.00">CompetitionPhoto</text>
</g>
<!-- Competition&#45;&gt;CompetitionPhoto -->
<g id="edge14" class="edge"><title>Competition&#45;&gt;CompetitionPhoto</title>
<path fill="none" stroke="#c3420a" d="M643.076,-383.243C691.6,-370.578 762.714,-346.571 813,-306 877.938,-253.608 924.411,-163.836 944.67,-119.446"/>
<ellipse fill="none" stroke="#c3420a" cx="639.066" cy="-384.266" rx="4.00001" ry="4.00001"/>
<polygon fill="#c3420a" stroke="#c3420a" points="944.728,-119.316 952.921,-112.027 946.771,-114.752 948.813,-110.188 948.813,-110.188 948.813,-110.188 946.771,-114.752 944.706,-108.35 944.728,-119.316 944.728,-119.316"/>
</g>
<!-- JuryRating -->
<g id="node9" class="node"><title>JuryRating</title>
<ellipse fill="none" stroke="black" cx="1031" cy="-18" rx="51.4931" ry="18"/>
<text text-anchor="middle" x="1031" y="-14.3" font-family="Times,serif" font-size="14.00">JuryRating</text>
</g>
<!-- CompetitionPhoto&#45;&gt;JuryRating -->
<g id="edge18" class="edge"><title>CompetitionPhoto&#45;&gt;JuryRating</title>
<path fill="none" stroke="#f0f3b2" d="M979.424,-68.5134C988.145,-60.1407 998.055,-50.6272 1006.84,-42.1923"/>
<ellipse fill="none" stroke="#f0f3b2" cx="976.281" cy="-71.5306" rx="4.00002" ry="4.00002"/>
<polygon fill="#f0f3b2" stroke="#f0f3b2" points="1007,-42.0387 1017.33,-38.3596 1010.61,-38.5761 1014.22,-35.1134 1014.22,-35.1134 1014.22,-35.1134 1010.61,-38.5761 1011.1,-31.8671 1007,-42.0387 1007,-42.0387"/>
</g>
<!-- Message -->
<g id="node10" class="node"><title>Message</title>
<ellipse fill="none" stroke="black" cx="707" cy="-180" rx="42.3701" ry="18"/>
<text text-anchor="middle" x="707" y="-176.3" font-family="Times,serif" font-size="14.00">Message</text>
</g>
<!-- Message&#45;&gt;Comment -->
<g id="edge24" class="edge"><title>Message&#45;&gt;Comment</title>
<path fill="none" stroke="#7bbd73" d="M666.917,-166.148C661.593,-164.643 656.185,-163.214 651,-162 603.619,-150.909 588.841,-160.327 543,-144 529.498,-139.191 528.565,-132.629 515,-128 460.214,-109.302 442.565,-122.308 386,-110 382.082,-109.148 378.041,-108.163 374.005,-107.105"/>
<ellipse fill="none" stroke="#7bbd73" cx="670.78" cy="-167.274" rx="4.00001" ry="4.00001"/>
<polygon fill="#7bbd73" stroke="#7bbd73" points="373.695,-107.019 365.251,-100.022 368.875,-105.69 364.055,-104.36 364.055,-104.36 364.055,-104.36 368.875,-105.69 362.858,-108.698 373.695,-107.019 373.695,-107.019"/>
</g>
<!-- Novelty -->
<g id="node11" class="node"><title>Novelty</title>
<ellipse fill="none" stroke="black" cx="329" cy="-234" rx="39.9464" ry="18"/>
<text text-anchor="middle" x="329" y="-230.3" font-family="Times,serif" font-size="14.00">Novelty</text>
</g>
<!-- Novelty&#45;&gt;Comment -->
<g id="edge28" class="edge"><title>Novelty&#45;&gt;Comment</title>
<path fill="none" stroke="#037d9a" d="M329,-207.662C329,-183.009 329,-145.665 329,-120.349"/>
<ellipse fill="none" stroke="#037d9a" cx="329" cy="-211.833" rx="4" ry="4"/>
<polygon fill="#037d9a" stroke="#037d9a" points="329,-120.307 333.5,-110.307 329,-115.307 329,-110.307 329,-110.307 329,-110.307 329,-115.307 324.5,-110.307 329,-120.307 329,-120.307"/>
</g>
<!-- Photo -->
<g id="node12" class="node"><title>Photo</title>
<ellipse fill="none" stroke="black" cx="800" cy="-180" rx="33.2209" ry="18"/>
<text text-anchor="middle" x="800" y="-176.3" font-family="Times,serif" font-size="14.00">Photo</text>
</g>
<!-- Photo&#45;&gt;Comment -->
<g id="edge42" class="edge"><title>Photo&#45;&gt;Comment</title>
<path fill="none" stroke="#03d828" d="M767.923,-164.925C764.614,-163.803 761.267,-162.798 758,-162 675.599,-141.876 648.862,-169.617 568,-144 554.336,-139.671 553.615,-132.478 540,-128 474.539,-106.47 453.494,-123.9 386,-110 382.073,-109.191 378.026,-108.237 373.985,-107.199"/>
<ellipse fill="none" stroke="#03d828" cx="771.765" cy="-166.333" rx="4.00001" ry="4.00001"/>
<polygon fill="#03d828" stroke="#03d828" points="373.676,-107.115 365.211,-100.144 368.852,-105.8 364.028,-104.485 364.028,-104.485 364.028,-104.485 368.852,-105.8 362.845,-108.827 373.676,-107.115 373.676,-107.115"/>
</g>
<!-- Photo&#45;&gt;CompetitionPhoto -->
<g id="edge32" class="edge"><title>Photo&#45;&gt;CompetitionPhoto</title>
<path fill="none" stroke="#734999" d="M834.521,-166.337C849.734,-160.279 867.611,-152.496 883,-144 898.1,-135.664 913.902,-124.908 926.928,-115.424"/>
<ellipse fill="none" stroke="#734999" cx="830.561" cy="-167.886" rx="4.00001" ry="4.00001"/>
<polygon fill="#734999" stroke="#734999" points="927.012,-115.362 937.727,-113.031 931.032,-112.388 935.051,-109.414 935.051,-109.414 935.051,-109.414 931.032,-112.388 932.374,-105.796 927.012,-115.362 927.012,-115.362"/>
</g>
<!-- ActsAsTaggableOn::Tagging -->
<g id="node39" class="node"><title>ActsAsTaggableOn::Tagging</title>
<ellipse fill="none" stroke="black" cx="738" cy="-92" rx="119.384" ry="18"/>
<text text-anchor="middle" x="738" y="-88.3" font-family="Times,serif" font-size="14.00">ActsAsTaggableOn::Tagging</text>
</g>
<!-- Photo&#45;&gt;ActsAsTaggableOn::Tagging -->
<g id="edge34" class="edge"><title>Photo&#45;&gt;ActsAsTaggableOn::Tagging</title>
<path fill="none" stroke="#d9af83" d="M767.548,-164.894C749.984,-156.932 731.382,-147.829 729,-144 724.544,-136.835 724.564,-128.07 726.378,-119.841"/>
<ellipse fill="none" stroke="#d9af83" cx="771.312" cy="-166.582" rx="4.00002" ry="4.00002"/>
<polygon fill="#d9af83" stroke="#d9af83" points="726.396,-119.781 733.605,-111.518 727.848,-114.996 729.299,-110.212 729.299,-110.212 729.299,-110.212 727.848,-114.996 724.993,-108.905 726.396,-119.781 726.396,-119.781"/>
<text text-anchor="middle" x="753.5" y="-132.3" font-family="Times,serif" font-size="14.00">taggings</text>
</g>
<!-- Photo&#45;&gt;ActsAsTaggableOn::Tagging -->
<g id="edge38" class="edge"><title>Photo&#45;&gt;ActsAsTaggableOn::Tagging</title>
<path fill="none" stroke="#a71361" d="M791.885,-154.225C788.375,-145.483 783.738,-135.877 778,-128 775.161,-124.103 771.815,-120.339 768.286,-116.816"/>
<ellipse fill="none" stroke="#a71361" cx="793.38" cy="-158.193" rx="4.00001" ry="4.00001"/>
<polygon fill="#a71361" stroke="#a71361" points="768.224,-116.757 763.953,-106.657 764.558,-113.357 760.892,-109.956 760.892,-109.956 760.892,-109.956 764.558,-113.357 757.832,-113.256 768.224,-116.757 768.224,-116.757"/>
<text text-anchor="middle" x="833.5" y="-132.3" font-family="Times,serif" font-size="14.00">theme_taggings</text>
</g>
<!-- ActsAsTaggableOn::Tag -->
<g id="node41" class="node"><title>ActsAsTaggableOn::Tag</title>
<ellipse fill="none" stroke="black" cx="498" cy="-92" rx="102.536" ry="18"/>
<text text-anchor="middle" x="498" y="-88.3" font-family="Times,serif" font-size="14.00">ActsAsTaggableOn::Tag</text>
</g>
<!-- Photo&#45;&gt;ActsAsTaggableOn::Tag -->
<g id="edge36" class="edge"><title>Photo&#45;&gt;ActsAsTaggableOn::Tag</title>
<path fill="none" stroke="#242175" d="M765.432,-164.414C762.935,-163.544 760.44,-162.728 758,-162 718.493,-150.213 706.479,-155.88 667,-144 649.059,-138.601 645.748,-134.003 628,-128 607.926,-121.21 585.765,-114.84 565.514,-109.443"/>
<polygon fill="#242175" stroke="#242175" points="765.587,-164.471 773.386,-172.18 770.272,-166.218 774.957,-167.964 774.957,-167.964 774.957,-167.964 770.272,-166.218 776.529,-163.747 765.587,-164.471 765.587,-164.471"/>
<polygon fill="#242175" stroke="#242175" points="565.414,-109.417 556.887,-102.523 560.579,-108.146 555.743,-106.875 555.743,-106.875 555.743,-106.875 560.579,-108.146 554.599,-111.227 565.414,-109.417 565.414,-109.417"/>
<text text-anchor="middle" x="694.5" y="-132.3" font-family="Times,serif" font-size="14.00">base_tags</text>
</g>
<!-- Photo&#45;&gt;ActsAsTaggableOn::Tag -->
<g id="edge40" class="edge"><title>Photo&#45;&gt;ActsAsTaggableOn::Tag</title>
<path fill="none" stroke="#d0c3ef" d="M765.983,-164.31C763.31,-163.44 760.629,-162.654 758,-162 682.554,-143.229 655.564,-174.382 584,-144 573.838,-139.686 574.169,-134.148 565,-128 557.556,-123.009 549.315,-118.189 541.232,-113.806"/>
<polygon fill="#d0c3ef" stroke="#d0c3ef" points="766.105,-164.354 773.985,-171.979 770.808,-166.05 775.512,-167.746 775.512,-167.746 775.512,-167.746 770.808,-166.05 777.038,-163.513 766.105,-164.354 766.105,-164.354"/>
<polygon fill="#d0c3ef" stroke="#d0c3ef" points="541.07,-113.72 534.324,-105.075 536.647,-111.388 532.225,-109.055 532.225,-109.055 532.225,-109.055 536.647,-111.388 530.125,-113.036 541.07,-113.72 541.07,-113.72"/>
<text text-anchor="middle" x="604" y="-132.3" font-family="Times,serif" font-size="14.00">themes</text>
</g>
<!-- Picture -->
<g id="node13" class="node"><title>Picture</title>
<ellipse fill="none" stroke="black" cx="1129" cy="-396" rx="37.0701" ry="18"/>
<text text-anchor="middle" x="1129" y="-392.3" font-family="Times,serif" font-size="14.00">Picture</text>
</g>
<!-- RedactorRails::Asset -->
<g id="node14" class="node"><title>RedactorRails::Asset</title>
<ellipse fill="none" stroke="black" cx="1272" cy="-396" rx="87.613" ry="18"/>
<text text-anchor="middle" x="1272" y="-392.3" font-family="Times,serif" font-size="14.00">RedactorRails::Asset</text>
</g>
<!-- RedactorRails::Document -->
<g id="node15" class="node"><title>RedactorRails::Document</title>
<ellipse fill="none" stroke="black" cx="1235" cy="-288" rx="106.386" ry="18"/>
<text text-anchor="middle" x="1235" y="-284.3" font-family="Times,serif" font-size="14.00">RedactorRails::Document</text>
</g>
<!-- RedactorRails::Asset&#45;&gt;RedactorRails::Document -->
<g id="edge50" class="edge"><title>RedactorRails::Asset&#45;&gt;RedactorRails::Document</title>
<path fill="none" stroke="black" d="M1266.06,-377.969C1259.15,-358.189 1247.83,-325.751 1240.93,-305.988"/>
</g>
<!-- RedactorRails::Picture -->
<g id="node16" class="node"><title>RedactorRails::Picture</title>
<ellipse fill="none" stroke="black" cx="1454" cy="-288" rx="94.3628" ry="18"/>
<text text-anchor="middle" x="1454" y="-284.3" font-family="Times,serif" font-size="14.00">RedactorRails::Picture</text>
</g>
<!-- RedactorRails::Asset&#45;&gt;RedactorRails::Picture -->
<g id="edge52" class="edge"><title>RedactorRails::Asset&#45;&gt;RedactorRails::Picture</title>
<path fill="none" stroke="black" d="M1299.64,-378.901C1333.85,-358.978 1391.77,-325.244 1426.1,-305.251"/>
</g>
<!-- Role -->
<g id="node17" class="node"><title>Role</title>
<ellipse fill="none" stroke="black" cx="814" cy="-396" rx="28.3955" ry="18"/>
<text text-anchor="middle" x="814" y="-392.3" font-family="Times,serif" font-size="14.00">Role</text>
</g>
<!-- User -->
<g id="node19" class="node"><title>User</title>
<ellipse fill="none" stroke="black" cx="776" cy="-288" rx="28.3955" ry="18"/>
<text text-anchor="middle" x="776" y="-284.3" font-family="Times,serif" font-size="14.00">User</text>
</g>
<!-- Role&#45;&gt;User -->
<g id="edge54" class="edge"><title>Role&#45;&gt;User</title>
<path fill="none" stroke="#b0cd55" d="M804.445,-368.346C798.597,-352.034 791.148,-331.256 785.34,-315.054"/>
<polygon fill="#b0cd55" stroke="#b0cd55" points="804.52,-368.556 803.659,-379.488 806.207,-373.263 807.895,-377.969 807.895,-377.969 807.895,-377.969 806.207,-373.263 812.131,-376.451 804.52,-368.556 804.52,-368.556"/>
<polygon fill="#b0cd55" stroke="#b0cd55" points="785.34,-315.052 786.201,-304.12 783.652,-310.346 781.965,-305.639 781.965,-305.639 781.965,-305.639 783.652,-310.346 777.729,-307.158 785.34,-315.052 785.34,-315.052"/>
</g>
<!-- Topic -->
<g id="node18" class="node"><title>Topic</title>
<ellipse fill="none" stroke="black" cx="871" cy="-342" rx="32.2457" ry="18"/>
<text text-anchor="middle" x="871" y="-338.3" font-family="Times,serif" font-size="14.00">Topic</text>
</g>
<!-- Topic&#45;&gt;Photo -->
<g id="edge58" class="edge"><title>Topic&#45;&gt;Photo</title>
<path fill="none" stroke="#0260ef" d="M860.253,-316.781C847.14,-287.232 825.059,-237.471 811.58,-207.096"/>
<ellipse fill="none" stroke="#0260ef" cx="861.913" cy="-320.523" rx="4.00002" ry="4.00002"/>
<polygon fill="#0260ef" stroke="#0260ef" points="811.42,-206.736 811.477,-195.77 809.392,-202.165 807.364,-197.595 807.364,-197.595 807.364,-197.595 809.392,-202.165 803.251,-199.42 811.42,-206.736 811.42,-206.736"/>
</g>
<!-- User&#45;&gt;Admin::Jury -->
<g id="edge66" class="edge"><title>User&#45;&gt;Admin::Jury</title>
<path fill="none" stroke="#60094b" d="M746.487,-272.887C733.425,-266.581 717.904,-259.005 704,-252 673.109,-236.437 666.327,-230.665 635,-216 622.23,-210.022 608.154,-203.958 595.235,-198.595"/>
<ellipse fill="none" stroke="#60094b" cx="750.258" cy="-274.703" rx="4.00002" ry="4.00002"/>
<polygon fill="#60094b" stroke="#60094b" points="594.871,-198.445 587.333,-190.481 590.247,-196.544 585.622,-194.643 585.622,-194.643 585.622,-194.643 590.247,-196.544 583.911,-198.805 594.871,-198.445 594.871,-198.445"/>
<text text-anchor="middle" x="716.5" y="-230.3" font-family="Times,serif" font-size="14.00">jury</text>
</g>
<!-- User&#45;&gt;Message -->
<g id="edge64" class="edge"><title>User&#45;&gt;Message</title>
<path fill="none" stroke="#e9d16b" d="M762.814,-264C754.567,-249.932 743.542,-231.685 733,-216 730.737,-212.633 728.282,-209.142 725.815,-205.726"/>
<ellipse fill="none" stroke="#e9d16b" cx="764.843" cy="-267.484" rx="4.00002" ry="4.00002"/>
<polygon fill="#e9d16b" stroke="#e9d16b" points="725.689,-205.555 723.381,-194.835 722.724,-201.53 719.758,-197.504 719.758,-197.504 719.758,-197.504 722.724,-201.53 716.135,-200.173 725.689,-205.555 725.689,-205.555"/>
</g>
<!-- User&#45;&gt;Photo -->
<g id="edge62" class="edge"><title>User&#45;&gt;Photo</title>
<path fill="none" stroke="#e6f1aa" d="M781.659,-262.008C785.323,-245.823 790.095,-224.748 793.852,-208.152"/>
<ellipse fill="none" stroke="#e6f1aa" cx="780.739" cy="-266.068" rx="4.00001" ry="4.00001"/>
<polygon fill="#e6f1aa" stroke="#e6f1aa" points="793.945,-207.742 800.542,-198.982 795.049,-202.865 796.154,-197.988 796.154,-197.988 796.154,-197.988 795.049,-202.865 791.765,-196.995 793.945,-207.742 793.945,-207.742"/>
</g>
<!-- Object -->
<g id="node20" class="node"><title>Object</title>
<ellipse fill="none" stroke="black" cx="281" cy="-491" rx="35.1455" ry="18"/>
<text text-anchor="middle" x="281" y="-487.3" font-family="Times,serif" font-size="14.00">Object</text>
</g>
<!-- Object&#45;&gt;Ability -->
<g id="edge2" class="edge"><title>Object&#45;&gt;Ability</title>
<path fill="none" stroke="black" d="M281,-472.942C281,-456.267 281,-431.01 281,-414.264"/>
</g>
<!-- ActiveRecord::Base -->
<g id="node22" class="node"><title>ActiveRecord::Base</title>
<ellipse fill="none" stroke="black" cx="778" cy="-491" rx="84.2388" ry="18"/>
<text text-anchor="middle" x="778" y="-487.3" font-family="Times,serif" font-size="14.00">ActiveRecord::Base</text>
</g>
<!-- ActiveRecord::Base&#45;&gt;Admin::Jury -->
<g id="edge4" class="edge"><title>ActiveRecord::Base&#45;&gt;Admin::Jury</title>
<path fill="none" stroke="black" d="M703.996,-482.178C608.332,-467.339 448.601,-425.015 403,-306 381.641,-250.254 461.051,-211.719 511.761,-193.327"/>
</g>
<!-- ActiveRecord::Base&#45;&gt;Admin::Nomination -->
<g id="edge6" class="edge"><title>ActiveRecord::Base&#45;&gt;Admin::Nomination</title>
<path fill="none" stroke="black" d="M695.582,-487.169C638.658,-480.674 565.617,-462.535 522,-414 495.009,-383.966 494.854,-332.996 496.96,-306.369"/>
</g>
<!-- ActiveRecord::Base&#45;&gt;Comment -->
<g id="edge8" class="edge"><title>ActiveRecord::Base&#45;&gt;Comment</title>
<path fill="none" stroke="black" d="M769.42,-473.041C749.766,-434.12 700.092,-335.325 660,-252 640.862,-212.224 652.976,-188.929 618,-162 582.218,-134.451 562.118,-153.639 518,-144 458.814,-131.069 444.371,-126.216 386,-110 379.234,-108.12 372.041,-106.04 365.125,-103.998"/>
</g>
<!-- ActiveRecord::Base&#45;&gt;Competition -->
<g id="edge16" class="edge"><title>ActiveRecord::Base&#45;&gt;Competition</title>
<path fill="none" stroke="black" d="M744.846,-474.438C721.355,-463.336 689.141,-447.962 661,-434 646.522,-426.817 630.522,-418.621 617.289,-411.771"/>
</g>
<!-- ActiveRecord::Base&#45;&gt;CompetitionPhoto -->
<g id="edge20" class="edge"><title>ActiveRecord::Base&#45;&gt;CompetitionPhoto</title>
<path fill="none" stroke="black" d="M814.882,-474.793C867.019,-452.734 956,-412.777 956,-397 956,-397 956,-397 956,-179 956,-155.111 956,-127.49 956,-110.133"/>
</g>
<!-- ActiveRecord::Base&#45;&gt;JuryRating -->
<g id="edge22" class="edge"><title>ActiveRecord::Base&#45;&gt;JuryRating</title>
<path fill="none" stroke="black" d="M813.421,-474.452C830.63,-467.176 851.713,-458.666 871,-452 955.3,-422.865 1064,-486.193 1064,-397 1064,-397 1064,-397 1064,-91 1064,-70.5119 1052.82,-49.4825 1043.48,-35.4824"/>
</g>
<!-- ActiveRecord::Base&#45;&gt;Message -->
<g id="edge26" class="edge"><title>ActiveRecord::Base&#45;&gt;Message</title>
<path fill="none" stroke="black" d="M774.082,-472.947C761.668,-418.922 723.303,-251.951 710.906,-198.001"/>
</g>
<!-- ActiveRecord::Base&#45;&gt;Novelty -->
<g id="edge30" class="edge"><title>ActiveRecord::Base&#45;&gt;Novelty</title>
<path fill="none" stroke="black" d="M693.672,-489.533C588.083,-487.122 415.493,-476.552 370,-434 318.348,-385.687 322.454,-290.984 326.663,-252.192"/>
</g>
<!-- ActiveRecord::Base&#45;&gt;Photo -->
<g id="edge44" class="edge"><title>ActiveRecord::Base&#45;&gt;Photo</title>
<path fill="none" stroke="black" d="M805.465,-473.851C838.047,-452.663 889.753,-411.987 904,-360 922.523,-292.407 852.485,-223.929 818.056,-195.133"/>
</g>
<!-- ActiveRecord::Base&#45;&gt;Picture -->
<g id="edge46" class="edge"><title>ActiveRecord::Base&#45;&gt;Picture</title>
<path fill="none" stroke="black" d="M809.912,-474.165C827.502,-466.159 849.979,-457.085 871,-452 960.759,-430.289 991.481,-466.288 1078,-434 1090.71,-429.257 1103.07,-420.428 1112.44,-412.584"/>
</g>
<!-- ActiveRecord::Base&#45;&gt;RedactorRails::Asset -->
<g id="edge48" class="edge"><title>ActiveRecord::Base&#45;&gt;RedactorRails::Asset</title>
<path fill="none" stroke="black" d="M809.899,-474.11C827.485,-466.088 849.962,-457.016 871,-452 968.154,-428.837 996.145,-448.246 1095,-434 1136.48,-428.022 1182.83,-418.217 1217.7,-410.202"/>
</g>
<!-- ActiveRecord::Base&#45;&gt;Role -->
<g id="edge56" class="edge"><title>ActiveRecord::Base&#45;&gt;Role</title>
<path fill="none" stroke="black" d="M784.603,-472.942C791.139,-456.057 801.081,-430.374 807.56,-413.637"/>
</g>
<!-- ActiveRecord::Base&#45;&gt;Topic -->
<g id="edge60" class="edge"><title>ActiveRecord::Base&#45;&gt;Topic</title>
<path fill="none" stroke="black" d="M798.832,-473.381C815.251,-459.229 837.548,-437.499 851,-414 860.734,-396.996 865.977,-374.956 868.62,-359.974"/>
</g>
<!-- ActiveRecord::Base&#45;&gt;User -->
<g id="edge68" class="edge"><title>ActiveRecord::Base&#45;&gt;User</title>
<path fill="none" stroke="black" d="M777.418,-472.798C776.928,-457.396 776.266,-434.193 776,-414 775.495,-375.592 775.688,-330.54 775.856,-306.392"/>
</g>
</g>
</svg>
